<svg xmlns="http://www.w3.org/2000/svg" width="1800" height="1100" viewBox="0 0 1800 1100">
  <defs>
    <pattern id="grid" x="0" y="0" width="40" height="40" patternUnits="userSpaceOnUse">
      <path d="M 40 0 L 0 0 0 40" fill="none" stroke="rgba(115,139,255,0.05)" stroke-width="1"></path>
    </pattern>
    <radialGradient id="rightWash" cx="78%" cy="50%" r="55%">
      <stop offset="0%" stop-color="rgba(115,139,255,0.05)"></stop>
      <stop offset="100%" stop-color="rgba(115,139,255,0)"></stop>
    </radialGradient>
    <filter id="grain" x="0%" y="0%" width="100%" height="100%">
      <feTurbulence type="fractalNoise" baseFrequency="0.85" numOctaves="2" seed="3"></feTurbulence>
      <feColorMatrix values="0 0 0 0 1   0 0 0 0 1   0 0 0 0 1   0 0 0 0.18 0"></feColorMatrix>
      <feComposite in2="SourceGraphic" operator="in"></feComposite>
    </filter>
    <marker id="arrow" viewBox="0 0 10 10" refX="9" refY="5" markerWidth="7" markerHeight="7" orient="auto-start-reverse">
      <path d="M 0 0 L 10 5 L 0 10 z" fill="rgba(240,240,240,0.45)"></path>
    </marker>
    <marker id="arrowBlue" viewBox="0 0 10 10" refX="9" refY="5" markerWidth="7" markerHeight="7" orient="auto-start-reverse">
      <path d="M 0 0 L 10 5 L 0 10 z" fill="#738BFF"></path>
    </marker>
  </defs>

  
  <rect width="1800" height="1100" fill="#0B0C0F"></rect>
  <rect width="1800" height="1100" fill="url(#grid)"></rect>
  <rect width="1800" height="1100" filter="url(#grain)" opacity="0.35"></rect>
  <rect width="1800" height="1100" fill="url(#rightWash)"></rect>

  
  <g fill="#738BFF">
    <rect x="80" y="80" width="4" height="4" opacity="0.55"></rect>
    <rect x="220" y="60" width="3" height="3" opacity="0.4"></rect>
    <rect x="640" y="50" width="4" height="4" opacity="0.5"></rect>
    <rect x="1380" y="68" width="4" height="4" opacity="0.5"></rect>
    <rect x="1620" y="100" width="3" height="3" opacity="0.45"></rect>
    <rect x="1700" y="58" width="5" height="5" opacity="0.55"></rect>
    <rect x="60" y="1040" width="3" height="3" opacity="0.4"></rect>
    <rect x="220" y="1058" width="4" height="4" opacity="0.45"></rect>
    <rect x="1480" y="1058" width="4" height="4" opacity="0.45"></rect>
    <rect x="1700" y="1020" width="3" height="3" opacity="0.35"></rect>
  </g>
  <g fill="#F0F0F0">
    <rect x="500" y="70" width="2" height="2" opacity="0.25"></rect>
    <rect x="980" y="90" width="2" height="2" opacity="0.20"></rect>
    <rect x="1180" y="60" width="2" height="2" opacity="0.25"></rect>
    <rect x="100" y="980" width="2" height="2" opacity="0.20"></rect>
    <rect x="900" y="1010" width="2" height="2" opacity="0.20"></rect>
  </g>

  
  <g transform="translate(40,40)">
    <g transform="translate(0,0) scale(0.30067789197463374,0.3006778919746337)" fill="#738BFF">
      <path d="M 16.479 30.228 L 30.904 30.228 L 30.904 73.168 L 16.479 73.168 Z"></path>
      <path d="M 16.479 42.775 L 16.479 27.406 L 59.839 2.614 L 59.839 17.984 Z"></path>
      <path d="M 16.505 27.339 L 16.505 9.434 L 0 0 L 0.001 17.905 Z"></path>
      <path d="M 43.839 61.36 L 43.839 45.99 L 59.864 36.84 L 59.864 52.209 Z"></path>
    </g>
    <text x="32" y="16" font-family="&#34;Hanken Grotesk&#34;,&#34;Inter&#34;,system-ui,sans-serif" font-size="13" font-weight="500" fill="#F0F0F0" letter-spacing="-0.02em">ForgeYields</text>
  </g>
  <text x="1760" y="56" font-family="&#34;Hanken Grotesk&#34;,&#34;Inter&#34;,system-ui,sans-serif" font-size="11" letter-spacing="0.14em" fill="rgba(240,240,240,0.42)" text-anchor="end">ARCHITECTURE · TECHNICAL</text>

  
  <g transform="translate(80,108)">
    <text font-family="&#34;Hanken Grotesk&#34;,&#34;Inter&#34;,system-ui,sans-serif" font-size="13" letter-spacing="0.14em" fill="rgba(240,240,240,0.62)" y="0">SYSTEM · 3 LAYERS · ON-CHAIN COMPONENTS</text>
    <text font-family="&#34;Hanken Grotesk&#34;,&#34;Inter&#34;,system-ui,sans-serif" font-size="36" font-weight="500" letter-spacing="-0.025em" fill="#F0F0F0" y="46">How ForgeYields actually works on-chain.</text>
  </g>

  
  <line x1="430" y1="210" x2="430" y2="1010" stroke="rgba(240,240,240,0.14)" stroke-width="1" stroke-dasharray="4 6"></line>
  <line x1="880" y1="210" x2="880" y2="1010" stroke="rgba(240,240,240,0.14)" stroke-width="1" stroke-dasharray="4 6"></line>

  
  
  

  
  <g font-family="&#34;Hanken Grotesk&#34;,&#34;Inter&#34;,system-ui,sans-serif">
    <g transform="translate(52,238)">
      <rect width="150" height="58" rx="3" fill="#101218" stroke="rgba(240,240,240,0.18)"></rect>
      <text font-size="14" fill="#F0F0F0" x="75" y="26" text-anchor="middle" font-weight="500">Mailbox</text>
      <text font-size="11" fill="rgba(240,240,240,0.55)" x="75" y="44" text-anchor="middle" letter-spacing="0.04em">(Starknet)</text>
    </g>
    <g transform="translate(228,238)">
      <rect width="150" height="58" rx="3" fill="#101218" stroke="rgba(240,240,240,0.18)"></rect>
      <text font-size="14" fill="#F0F0F0" x="75" y="26" text-anchor="middle" font-weight="500">Mailbox</text>
      <text font-size="11" fill="rgba(240,240,240,0.55)" x="75" y="44" text-anchor="middle" letter-spacing="0.04em">(Ethereum)</text>
    </g>
    <text font-size="11" fill="rgba(240,240,240,0.40)" x="215" y="318" text-anchor="middle" letter-spacing="0.10em" font-style="italic">+ more chains coming</text>
  </g>

  
  <g>
    <line x1="215" y1="338" x2="215" y2="402" stroke="rgba(240,240,240,0.45)" stroke-width="1" marker-start="url(#arrow)" marker-end="url(#arrow)"></line>
    <g font-family="&#34;Hanken Grotesk&#34;,&#34;Inter&#34;,system-ui,sans-serif" font-size="11" fill="rgba(240,240,240,0.62)">
      <text x="232" y="350">Send Token</text>
      <text x="232" y="365">Gateway Report</text>
      <text x="232" y="385">Receive Controller</text>
      <text x="232" y="400">Report</text>
    </g>
  </g>

  
  <g font-family="&#34;Hanken Grotesk&#34;,&#34;Inter&#34;,system-ui,sans-serif">
    <g transform="translate(122,418)">
      <rect width="186" height="62" rx="3" fill="#101218" stroke="rgba(240,240,240,0.22)"></rect>
      <text font-size="15" fill="#F0F0F0" x="93" y="27" text-anchor="middle" font-weight="500">Token Gateway</text>
      <text font-size="11" fill="rgba(240,240,240,0.55)" x="93" y="46" text-anchor="middle" letter-spacing="0.04em">(Starknet)</text>
    </g>
    <g transform="translate(122,494)">
      <rect width="186" height="62" rx="3" fill="#101218" stroke="rgba(240,240,240,0.22)"></rect>
      <text font-size="15" fill="#F0F0F0" x="93" y="27" text-anchor="middle" font-weight="500">Token Gateway</text>
      <text font-size="11" fill="rgba(240,240,240,0.55)" x="93" y="46" text-anchor="middle" letter-spacing="0.04em">(Ethereum)</text>
    </g>
  </g>

  
  <g>
    <line x1="40" y1="490" x2="116" y2="490" stroke="rgba(240,240,240,0.45)" stroke-width="1" marker-end="url(#arrow)"></line>
    <text font-family="&#34;Hanken Grotesk&#34;,&#34;Inter&#34;,system-ui,sans-serif" font-size="11" fill="rgba(240,240,240,0.62)" x="40" y="478">Deposit / Redeem</text>
  </g>

  
  <g>
    <line x1="215" y1="566" x2="215" y2="638" stroke="rgba(240,240,240,0.45)" stroke-width="1" marker-start="url(#arrow)" marker-end="url(#arrow)"></line>
    <g font-family="&#34;Hanken Grotesk&#34;,&#34;Inter&#34;,system-ui,sans-serif" font-size="11" fill="rgba(240,240,240,0.62)">
      <text x="232" y="580">Send Assets to</text>
      <text x="232" y="595">L1 Vault</text>
      <text x="232" y="615">Receive Assets from</text>
      <text x="232" y="630">L1 Vault</text>
    </g>
  </g>

  
  <g font-family="&#34;Hanken Grotesk&#34;,&#34;Inter&#34;,system-ui,sans-serif">
    <g transform="translate(122,650)">
      <rect width="186" height="62" rx="3" fill="#101218" stroke="rgba(240,240,240,0.22)"></rect>
      <text font-size="15" fill="#F0F0F0" x="93" y="27" text-anchor="middle" font-weight="500">Canonical Bridge</text>
      <text font-size="11" fill="rgba(240,240,240,0.55)" x="93" y="46" text-anchor="middle" letter-spacing="0.04em">(Starknet)</text>
    </g>
  </g>

  
  
  

  <g font-family="&#34;Hanken Grotesk&#34;,&#34;Inter&#34;,system-ui,sans-serif">
    <g transform="translate(495,238)">
      <rect width="150" height="58" rx="3" fill="#101218" stroke="rgba(240,240,240,0.18)"></rect>
      <text font-size="14" fill="#F0F0F0" x="75" y="26" text-anchor="middle" font-weight="500">Mailbox</text>
      <text font-size="11" fill="rgba(240,240,240,0.55)" x="75" y="44" text-anchor="middle" letter-spacing="0.04em">(Starknet)</text>
    </g>
    <g transform="translate(665,238)">
      <rect width="150" height="58" rx="3" fill="#101218" stroke="rgba(240,240,240,0.18)"></rect>
      <text font-size="14" fill="#F0F0F0" x="75" y="26" text-anchor="middle" font-weight="500">Mailbox</text>
      <text font-size="11" fill="rgba(240,240,240,0.55)" x="75" y="44" text-anchor="middle" letter-spacing="0.04em">(Ethereum)</text>
    </g>
  </g>

  
  <g>
    <line x1="655" y1="306" x2="655" y2="430" stroke="rgba(240,240,240,0.45)" stroke-width="1" marker-end="url(#arrow)"></line>
    <g font-family="&#34;Hanken Grotesk&#34;,&#34;Inter&#34;,system-ui,sans-serif" font-size="11" fill="rgba(240,240,240,0.62)">
      <text x="670" y="328">Receive Token</text>
      <text x="670" y="343">Gateway Report</text>
      <text x="670" y="363">Receive Vault</text>
      <text x="670" y="378">Report</text>
      <text x="670" y="398">Send Controller</text>
      <text x="670" y="413">Report</text>
    </g>
  </g>

  
  <g font-family="&#34;Hanken Grotesk&#34;,&#34;Inter&#34;,system-ui,sans-serif">
    <g transform="translate(545,440)">
      <rect width="220" height="72" rx="3" fill="#101218" stroke="#738BFF" stroke-width="1.5"></rect>
      <rect width="220" height="72" rx="3" fill="#738BFF" opacity="0.05"></rect>
      <text font-size="18" fill="#F0F0F0" x="110" y="32" text-anchor="middle" font-weight="500" letter-spacing="-0.01em">Controller</text>
      <text font-size="11" fill="rgba(240,240,240,0.55)" x="110" y="52" text-anchor="middle" letter-spacing="0.04em">(Starknet)</text>
    </g>
  </g>

  
  <g>
    <line x1="655" y1="618" x2="655" y2="520" stroke="rgba(240,240,240,0.45)" stroke-width="1" marker-end="url(#arrow)"></line>
    <g font-family="&#34;Hanken Grotesk&#34;,&#34;Inter&#34;,system-ui,sans-serif" font-size="11" fill="rgba(240,240,240,0.62)">
      <text x="670" y="555">Send total assets</text>
      <text x="670" y="570">under management</text>
    </g>
  </g>

  
  <g transform="translate(655,632)" font-family="&#34;Hanken Grotesk&#34;,&#34;Inter&#34;,system-ui,sans-serif">
    <circle cx="0" cy="0" r="14" fill="none" stroke="rgba(240,240,240,0.55)" stroke-width="1.25"></circle>
    <path d="M -22 38 C -22 16, 22 16, 22 38" fill="none" stroke="rgba(240,240,240,0.55)" stroke-width="1.25"></path>
    <text font-size="12" letter-spacing="0.20em" fill="rgba(240,240,240,0.62)" x="0" y="62" text-anchor="middle">ORACLE ROLE</text>
  </g>

  
  
  
  
  
  

  
  <g transform="translate(1010,238)" font-family="&#34;Hanken Grotesk&#34;,&#34;Inter&#34;,system-ui,sans-serif">
    <circle cx="0" cy="0" r="14" fill="none" stroke="rgba(240,240,240,0.55)" stroke-width="1.25"></circle>
    <path d="M -22 38 C -22 16, 22 16, 22 38" fill="none" stroke="rgba(240,240,240,0.55)" stroke-width="1.25"></path>
    <text font-size="13" fill="rgba(240,240,240,0.78)" x="0" y="58" text-anchor="middle" font-weight="500">Strategist</text>
  </g>

  
  <g>
    <line x1="1010" y1="310" x2="1010" y2="438" stroke="rgba(240,240,240,0.45)" stroke-width="1" marker-end="url(#arrow)"></line>
    <g font-family="&#34;Hanken Grotesk&#34;,&#34;Inter&#34;,system-ui,sans-serif" font-size="11" fill="rgba(240,240,240,0.62)">
      <text x="1028" y="350">Execute orders from</text>
      <text x="1028" y="365">off-chain rebalancing</text>
      <text x="1028" y="380">algorithm</text>
    </g>
  </g>

  
  <g font-family="&#34;Hanken Grotesk&#34;,&#34;Inter&#34;,system-ui,sans-serif">
    <g transform="translate(1255,238)">
      <rect width="150" height="58" rx="3" fill="#101218" stroke="rgba(240,240,240,0.18)"></rect>
      <text font-size="14" fill="#F0F0F0" x="75" y="26" text-anchor="middle" font-weight="500">Mailbox</text>
      <text font-size="11" fill="rgba(240,240,240,0.55)" x="75" y="44" text-anchor="middle" letter-spacing="0.04em">(Starknet)</text>
    </g>
  </g>

  
  <g>
    <line x1="1330" y1="306" x2="1330" y2="442" stroke="rgba(240,240,240,0.45)" stroke-width="1" marker-start="url(#arrow)" marker-end="url(#arrow)"></line>
    <g font-family="&#34;Hanken Grotesk&#34;,&#34;Inter&#34;,system-ui,sans-serif" font-size="11" fill="rgba(240,240,240,0.62)">
      <text x="1347" y="350">Send Vault Report</text>
      <text x="1347" y="370">Receive Controller</text>
      <text x="1347" y="385">Report</text>
    </g>
  </g>

  
  <g font-family="&#34;Hanken Grotesk&#34;,&#34;Inter&#34;,system-ui,sans-serif">
    <g transform="translate(925,448)">
      <rect width="170" height="64" rx="3" fill="#101218" stroke="rgba(240,240,240,0.22)"></rect>
      <text font-size="16" fill="#F0F0F0" x="85" y="29" text-anchor="middle" font-weight="500" letter-spacing="-0.01em">Manager</text>
      <text font-size="11" fill="rgba(240,240,240,0.55)" x="85" y="48" text-anchor="middle" letter-spacing="0.04em">(Ethereum)</text>
    </g>
  </g>

  
  <g>
    <line x1="1097" y1="480" x2="1243" y2="480" stroke="rgba(240,240,240,0.45)" stroke-width="1" marker-end="url(#arrow)"></line>
    <text font-family="&#34;Hanken Grotesk&#34;,&#34;Inter&#34;,system-ui,sans-serif" font-size="12" fill="rgba(240,240,240,0.78)" x="1170" y="471" text-anchor="middle">Manage</text>
  </g>

  
  <g font-family="&#34;Hanken Grotesk&#34;,&#34;Inter&#34;,system-ui,sans-serif">
    <g transform="translate(1245,448)">
      <rect width="170" height="64" rx="3" fill="#101218" stroke="rgba(240,240,240,0.22)"></rect>
      <text font-size="16" fill="#F0F0F0" x="85" y="29" text-anchor="middle" font-weight="500" letter-spacing="-0.01em">Vault</text>
      <text font-size="11" fill="rgba(240,240,240,0.55)" x="85" y="48" text-anchor="middle" letter-spacing="0.04em">(Ethereum)</text>
    </g>
  </g>

  
  <g>
    <line x1="1417" y1="480" x2="1548" y2="480" stroke="rgba(240,240,240,0.45)" stroke-width="1" marker-end="url(#arrow)"></line>
    <text font-family="&#34;Hanken Grotesk&#34;,&#34;Inter&#34;,system-ui,sans-serif" font-size="11" fill="rgba(240,240,240,0.62)" x="1482" y="470" text-anchor="middle">Deposit / Redeem</text>
  </g>

  
  <g font-family="&#34;Hanken Grotesk&#34;,&#34;Inter&#34;,system-ui,sans-serif">
    <g transform="translate(1550,448)">
      <rect width="140" height="64" rx="3" fill="transparent" stroke="rgba(240,240,240,0.65)" stroke-width="1.25"></rect>
      <text font-size="14" fill="#F0F0F0" x="70" y="31" text-anchor="middle" font-weight="500">Ethereum</text>
      <text font-size="14" fill="#F0F0F0" x="70" y="50" text-anchor="middle" font-weight="500">DeFi</text>
    </g>
  </g>

  
  <g>
    <line x1="1010" y1="690" x2="1010" y2="518" stroke="#738BFF" stroke-width="1.25" marker-end="url(#arrowBlue)"></line>
    <g font-family="&#34;Hanken Grotesk&#34;,&#34;Inter&#34;,system-ui,sans-serif" font-size="11" fill="rgba(240,240,240,0.78)">
      <text x="1028" y="565">Sources allowed DeFi</text>
      <text x="1028" y="580">integrations from public</text>
      <text x="1028" y="595">Hallmark scoring</text>
    </g>
  </g>

  <g font-family="&#34;Hanken Grotesk&#34;,&#34;Inter&#34;,system-ui,sans-serif">
    <g transform="translate(910,700)">
      <rect width="200" height="84" rx="3" fill="#101218" stroke="#738BFF" stroke-width="1.5"></rect>
      <rect width="200" height="84" rx="3" fill="#738BFF" opacity="0.05"></rect>
      <g transform="translate(20,22) scale(0.22)" fill="#738BFF">
        <path d="M 16.479 30.228 L 30.904 30.228 L 30.904 73.168 L 16.479 73.168 Z"></path>
        <path d="M 16.479 42.775 L 16.479 27.406 L 59.839 2.614 L 59.839 17.984 Z"></path>
        <path d="M 16.505 27.339 L 16.505 9.434 L 0 0 L 0.001 17.905 Z"></path>
        <path d="M 43.839 61.36 L 43.839 45.99 L 59.864 36.84 L 59.864 52.209 Z"></path>
      </g>
      <text font-size="11" letter-spacing="0.18em" fill="#738BFF" x="42" y="34">METHODOLOGY</text>
      <text font-size="22" fill="#F0F0F0" x="42" y="60" font-weight="500" letter-spacing="-0.02em">Hallmark</text>
      <text font-size="11" fill="rgba(240,240,240,0.55)" x="42" y="76" letter-spacing="0.06em">v4.1 · public scoring feed</text>
    </g>
  </g>

  
  <g>
    <line x1="1330" y1="690" x2="1330" y2="518" stroke="rgba(240,240,240,0.45)" stroke-width="1" marker-start="url(#arrow)" marker-end="url(#arrow)"></line>
    <g font-family="&#34;Hanken Grotesk&#34;,&#34;Inter&#34;,system-ui,sans-serif" font-size="11" fill="rgba(240,240,240,0.62)">
      <text x="1347" y="555">Receive Assets from</text>
      <text x="1347" y="570">token gateway</text>
      <text x="1347" y="590">Send Assets to</text>
      <text x="1347" y="605">token gateway</text>
    </g>
  </g>

  
  <g font-family="&#34;Hanken Grotesk&#34;,&#34;Inter&#34;,system-ui,sans-serif">
    <g transform="translate(1245,700)">
      <rect width="170" height="62" rx="3" fill="#101218" stroke="rgba(240,240,240,0.22)"></rect>
      <text font-size="14" fill="#F0F0F0" x="85" y="27" text-anchor="middle" font-weight="500">Canonical Bridge</text>
      <text font-size="11" fill="rgba(240,240,240,0.55)" x="85" y="46" text-anchor="middle" letter-spacing="0.04em">(Starknet)</text>
    </g>
  </g>

  
  
  
  <g font-family="&#34;Hanken Grotesk&#34;,&#34;Inter&#34;,system-ui,sans-serif">
    <text font-size="11" letter-spacing="0.18em" fill="rgba(240,240,240,0.42)" x="215" y="1040" text-anchor="middle">LAYER 1</text>
    <text font-size="22" font-weight="500" letter-spacing="-0.02em" fill="#F0F0F0" x="215" y="1072" text-anchor="middle">User interface layer</text>

    <text font-size="11" letter-spacing="0.18em" fill="rgba(240,240,240,0.42)" x="655" y="1040" text-anchor="middle">LAYER 2</text>
    <text font-size="22" font-weight="500" letter-spacing="-0.02em" fill="#F0F0F0" x="655" y="1072" text-anchor="middle">Coordination layer</text>

    <text font-size="11" letter-spacing="0.18em" fill="rgba(240,240,240,0.42)" x="1320" y="1040" text-anchor="middle">LAYER 3</text>
    <text font-size="22" font-weight="500" letter-spacing="-0.02em" fill="#F0F0F0" x="1320" y="1072" text-anchor="middle">Strategy execution layer</text>
  </g>
</svg>