<svg xmlns="http://www.w3.org/2000/svg" width="1600" height="640" viewBox="0 0 1600 640" font-family="&#34;Hanken Grotesk&#34;,&#34;Inter&#34;,system-ui,sans-serif">
  <defs>
    <pattern id="grid" x="0" y="0" width="40" height="40" patternUnits="userSpaceOnUse">
      <path d="M 40 0 L 0 0 0 40" fill="none" stroke="rgba(115,139,255,0.05)" stroke-width="1"></path>
    </pattern>
    <radialGradient id="rightWash" cx="78%" cy="50%" r="55%">
      <stop offset="0%" stop-color="rgba(115,139,255,0.05)"></stop>
      <stop offset="100%" stop-color="rgba(115,139,255,0)"></stop>
    </radialGradient>
    <filter id="grain" x="0%" y="0%" width="100%" height="100%">
      <feTurbulence type="fractalNoise" baseFrequency="0.85" numOctaves="2" seed="3"></feTurbulence>
      <feColorMatrix values="0 0 0 0 1   0 0 0 0 1   0 0 0 0 1   0 0 0 0.18 0"></feColorMatrix>
      <feComposite in2="SourceGraphic" operator="in"></feComposite>
    </filter>
    <marker id="arrow" viewBox="0 0 10 10" refX="9" refY="5" markerWidth="7" markerHeight="7" orient="auto-start-reverse">
      <path d="M 0 0 L 10 5 L 0 10 z" fill="rgba(240,240,240,0.45)"></path>
    </marker>
    <marker id="arrowBlue" viewBox="0 0 10 10" refX="9" refY="5" markerWidth="7" markerHeight="7" orient="auto-start-reverse">
      <path d="M 0 0 L 10 5 L 0 10 z" fill="#738BFF"></path>
    </marker>
  </defs>

  <rect width="1600" height="640" fill="#0B0C0F"></rect>
  <rect width="1600" height="640" fill="url(#grid)"></rect>
  <rect width="1600" height="640" filter="url(#grain)" opacity="0.35"></rect>
  <rect width="1600" height="640" fill="url(#rightWash)"></rect>

  <g fill="#738BFF">
    <rect x="78" y="78" width="4" height="4" opacity="0.55"></rect>
    <rect x="558" y="48" width="4" height="4" opacity="0.50"></rect>
    <rect x="1278" y="68" width="4" height="4" opacity="0.50"></rect>
    <rect x="1517" y="57" width="5" height="5" opacity="0.55"></rect>
    <rect x="58" y="578" width="3" height="3" opacity="0.40"></rect>
    <rect x="1538" y="568" width="3" height="3" opacity="0.35"></rect>
  </g>

  <g transform="translate(40,40)">
    <g transform="translate(0,0) scale(0.30067789197463374,0.3006778919746337)" fill="#738BFF">
      <path d="M 16.479 30.228 L 30.904 30.228 L 30.904 73.168 L 16.479 73.168 Z"></path>
      <path d="M 16.479 42.775 L 16.479 27.406 L 59.839 2.614 L 59.839 17.984 Z"></path>
      <path d="M 16.505 27.339 L 16.505 9.434 L 0 0 L 0.001 17.905 Z"></path>
      <path d="M 43.839 61.36 L 43.839 45.99 L 59.864 36.84 L 59.864 52.209 Z"></path>
    </g>
    <text x="32" y="16" font-size="13" font-weight="500" fill="#F0F0F0" letter-spacing="-0.02em">ForgeYields</text>
  </g>
  <text x="1560" y="56" font-size="11" letter-spacing="0.14em" fill="rgba(240,240,240,0.42)" text-anchor="end">STEP 06 · REDEEM</text>

  <g transform="translate(80,108)">
    <text font-size="11" letter-spacing="0.18em" fill="rgba(240,240,240,0.42)" y="0">USER JOURNEY · STEP 6</text>
    <text font-size="32" font-weight="500" letter-spacing="-0.025em" fill="#F0F0F0" y="38">Redeem anytime, from anywhere.</text>
    <text font-size="14" fill="rgba(240,240,240,0.62)" y="68">Request creates an ERC-721 receipt. After the next clearing cycle, claim returns the underlying.</text>
  </g>

  
  <g transform="translate(80,206)" font-family="&#34;Hanken Grotesk&#34;,&#34;Inter&#34;,system-ui,sans-serif">
    <text font-size="10" letter-spacing="0.18em" fill="rgba(240,240,240,0.42)" y="0">PHASE A · REQUEST  (synchronous)</text>
  </g>
  <g transform="translate(1020,206)" font-family="&#34;Hanken Grotesk&#34;,&#34;Inter&#34;,system-ui,sans-serif">
    <text font-size="10" letter-spacing="0.18em" fill="rgba(240,240,240,0.42)" y="0">PHASE B · CLAIM  (asynchronous · automated)</text>
  </g>

  
  <line x1="120" y1="356" x2="1480" y2="356" stroke="rgba(240,240,240,0.10)" stroke-dasharray="2 6"></line>

  
  <g transform="translate(80,244)">
    <rect width="200" height="96" rx="3" fill="transparent" stroke="rgba(240,240,240,0.55)" stroke-width="1.25"></rect>
    <text font-size="10" letter-spacing="0.18em" fill="rgba(240,240,240,0.55)" x="18" y="28">EXTERNAL</text>
    <text font-size="18" font-weight="500" fill="#F0F0F0" letter-spacing="-0.015em" x="18" y="56">User Wallet</text>
    <text font-size="11" fill="rgba(240,240,240,0.62)" x="18" y="78">holds fyToken</text>
  </g>

  
  <g>
    <line x1="282" y1="292" x2="362" y2="292" stroke="rgba(240,240,240,0.55)" stroke-width="1.25" marker-end="url(#arrow)"></line>
    <text font-size="11" font-family="ui-monospace,&#34;SF Mono&#34;,Menlo,monospace" fill="rgba(240,240,240,0.78)" x="322" y="282" text-anchor="middle">requestRedeem</text>
    <text font-size="10" letter-spacing="0.06em" fill="rgba(240,240,240,0.42)" x="322" y="308" text-anchor="middle">shares, receiver, owner</text>
  </g>

  
  <g transform="translate(364,244)">
    <rect width="220" height="96" rx="3" fill="#101218" stroke="rgba(240,240,240,0.22)"></rect>
    <text font-size="10" letter-spacing="0.18em" fill="rgba(240,240,240,0.42)" x="18" y="28">INTERFACE LAYER</text>
    <text font-size="18" font-weight="500" fill="#F0F0F0" letter-spacing="-0.015em" x="18" y="56">Token Gateway</text>
    <text font-size="11" fill="rgba(240,240,240,0.62)" x="18" y="78">burns shares · mints NFT</text>
  </g>

  
  <g>
    <line x1="586" y1="292" x2="666" y2="292" stroke="rgba(240,240,240,0.55)" stroke-width="1.25" marker-end="url(#arrow)"></line>
    <text font-size="11" font-family="ui-monospace,&#34;SF Mono&#34;,Menlo,monospace" fill="rgba(240,240,240,0.78)" x="626" y="282" text-anchor="middle">mints</text>
  </g>

  
  <g transform="translate(668,224)">
    <rect width="280" height="136" rx="3" fill="#101218" stroke="#738BFF" stroke-width="1.5"></rect>
    <rect width="280" height="136" rx="3" fill="#738BFF" opacity="0.05"></rect>
    <text font-size="10" letter-spacing="0.18em" fill="#738BFF" x="20" y="30">ERC-721 RECEIPT</text>
    <text font-size="22" font-weight="500" fill="#F0F0F0" letter-spacing="-0.015em" x="20" y="64">Redeem NFT</text>
    <line x1="20" y1="80" x2="260" y2="80" stroke="rgba(240,240,240,0.10)"></line>
    <g font-family="ui-monospace,&#34;SF Mono&#34;,Menlo,monospace" font-size="11" fill="rgba(240,240,240,0.78)">
      <text x="20" y="104">epoch  N</text>
      <text x="20" y="122">shares  X</text>
    </g>
    
    <g transform="translate(218,98)" font-family="ui-monospace,&#34;SF Mono&#34;,Menlo,monospace">
      <rect x="-2" y="-14" width="46" height="20" rx="3" fill="rgba(115,139,255,0.10)" stroke="rgba(115,139,255,0.40)"></rect>
      <text font-size="10" fill="#738BFF" x="20" y="0" text-anchor="middle">#0x7a</text>
    </g>
  </g>

  
  <g transform="translate(948,292)">
    <line x1="0" y1="0" x2="32" y2="0" stroke="rgba(240,240,240,0.45)" stroke-width="1.25"></line>
    <g transform="translate(34,-12)">
      <rect width="160" height="24" rx="12" fill="rgba(240,240,240,0.04)" stroke="rgba(240,240,240,0.30)" stroke-dasharray="3 4"></rect>
      <text font-size="10" letter-spacing="0.18em" fill="rgba(240,240,240,0.62)" x="80" y="16" text-anchor="middle">WAIT · CLEARING CYCLE</text>
    </g>
    <line x1="196" y1="0" x2="228" y2="0" stroke="rgba(240,240,240,0.45)" stroke-width="1.25" marker-end="url(#arrow)"></line>
  </g>

  
  <g transform="translate(1180,244)">
    <rect width="220" height="96" rx="3" fill="#101218" stroke="rgba(240,240,240,0.22)"></rect>
    <text font-size="10" letter-spacing="0.18em" fill="rgba(240,240,240,0.42)" x="18" y="28">L3 · POOL</text>
    <text font-size="18" font-weight="500" fill="#F0F0F0" letter-spacing="-0.015em" x="18" y="56">Withdrawal pool</text>
    <text font-size="11" fill="rgba(240,240,240,0.62)" x="18" y="78">processes epoch N</text>
  </g>

  
  <g>
    <path d="M 1400 292 C 1450 292, 1480 320, 1480 380 L 1480 430 C 1480 460, 1450 478, 1400 478" fill="none" stroke="#738BFF" stroke-width="1.25" marker-end="url(#arrowBlue)"></path>
    <g transform="translate(1290,382)">
      <text font-size="11" font-family="ui-monospace,&#34;SF Mono&#34;,Menlo,monospace" fill="#738BFF" x="0" y="0" text-anchor="middle">claimRedeem(id)</text>
      <text font-size="10" letter-spacing="0.06em" fill="rgba(240,240,240,0.42)" x="0" y="16" text-anchor="middle">relayer · auto</text>
    </g>
  </g>

  
  <g transform="translate(1180,430)">
    <rect width="220" height="96" rx="3" fill="#101218" stroke="rgba(240,240,240,0.22)"></rect>
    <text font-size="10" letter-spacing="0.18em" fill="rgba(240,240,240,0.42)" x="18" y="28">SETTLED</text>
    <text font-size="18" font-weight="500" fill="#F0F0F0" letter-spacing="-0.015em" x="18" y="56">Underlying assets</text>
    <text font-size="11" fill="rgba(240,240,240,0.62)" x="18" y="78">USDC / ETH / etc.</text>
  </g>

  
  <g>
    <line x1="1178" y1="478" x2="282" y2="478" stroke="rgba(240,240,240,0.45)" stroke-width="1.25" marker-end="url(#arrow)"></line>
    <text font-size="11" font-family="ui-monospace,&#34;SF Mono&#34;,Menlo,monospace" fill="rgba(240,240,240,0.78)" x="730" y="468" text-anchor="middle">returned to receiver</text>
    <text font-size="10" letter-spacing="0.06em" fill="rgba(240,240,240,0.42)" x="730" y="494" text-anchor="middle">on the chain they redeemed from</text>
  </g>

  
  <g transform="translate(80,430)">
    <rect width="200" height="96" rx="3" fill="transparent" stroke="rgba(240,240,240,0.55)" stroke-width="1.25"></rect>
    <text font-size="10" letter-spacing="0.18em" fill="rgba(240,240,240,0.55)" x="18" y="28">EXTERNAL</text>
    <text font-size="18" font-weight="500" fill="#F0F0F0" letter-spacing="-0.015em" x="18" y="56">User Wallet</text>
    <text font-size="11" fill="rgba(240,240,240,0.62)" x="18" y="78">receives underlying</text>
  </g>

  
  <g transform="translate(80,576)">
    <rect x="0" y="-22" width="3" height="60" fill="#738BFF" opacity="0.6"></rect>
    <text font-size="11" letter-spacing="0.14em" fill="rgba(240,240,240,0.42)" x="14" y="-2">DESIGN NOTE</text>
    <text font-size="13" fill="rgba(240,240,240,0.62)" x="14" y="22">Funds stay earning until the last moment.</text>
  </g>
  <g transform="translate(1460,598)">
    <text font-size="11" letter-spacing="0.14em" fill="rgba(240,240,240,0.42)" y="0" text-anchor="end">06 / 06</text>
  </g>
  <g transform="translate(800,596)">
    <text font-size="12" fill="rgba(240,240,240,0.55)" y="0" text-anchor="middle">Async by design — limits liquidity-extraction risk.</text>
  </g>
</svg>