<svg xmlns="http://www.w3.org/2000/svg" width="1600" height="600" viewBox="0 0 1600 600" font-family="&#34;Hanken Grotesk&#34;,&#34;Inter&#34;,system-ui,sans-serif">
  <defs>
    <pattern id="grid" x="0" y="0" width="40" height="40" patternUnits="userSpaceOnUse">
      <path d="M 40 0 L 0 0 0 40" fill="none" stroke="rgba(115,139,255,0.05)" stroke-width="1"></path>
    </pattern>
    <radialGradient id="rightWash" cx="78%" cy="50%" r="55%">
      <stop offset="0%" stop-color="rgba(115,139,255,0.05)"></stop>
      <stop offset="100%" stop-color="rgba(115,139,255,0)"></stop>
    </radialGradient>
    <filter id="grain" x="0%" y="0%" width="100%" height="100%">
      <feTurbulence type="fractalNoise" baseFrequency="0.85" numOctaves="2" seed="3"></feTurbulence>
      <feColorMatrix values="0 0 0 0 1   0 0 0 0 1   0 0 0 0 1   0 0 0 0.18 0"></feColorMatrix>
      <feComposite in2="SourceGraphic" operator="in"></feComposite>
    </filter>
    <marker id="arrow" viewBox="0 0 10 10" refX="9" refY="5" markerWidth="7" markerHeight="7" orient="auto-start-reverse">
      <path d="M 0 0 L 10 5 L 0 10 z" fill="rgba(240,240,240,0.45)"></path>
    </marker>
    <marker id="arrowBlue" viewBox="0 0 10 10" refX="9" refY="5" markerWidth="7" markerHeight="7" orient="auto-start-reverse">
      <path d="M 0 0 L 10 5 L 0 10 z" fill="#738BFF"></path>
    </marker>
  </defs>

  <rect width="1600" height="600" fill="#0B0C0F"></rect>
  <rect width="1600" height="600" fill="url(#grid)"></rect>
  <rect width="1600" height="600" filter="url(#grain)" opacity="0.35"></rect>
  <rect width="1600" height="600" fill="url(#rightWash)"></rect>

  <g fill="#738BFF">
    <rect x="78" y="78" width="4" height="4" opacity="0.55"></rect>
    <rect x="558" y="48" width="4" height="4" opacity="0.50"></rect>
    <rect x="1278" y="68" width="4" height="4" opacity="0.50"></rect>
    <rect x="1517" y="57" width="5" height="5" opacity="0.55"></rect>
    <rect x="58" y="538" width="3" height="3" opacity="0.40"></rect>
    <rect x="1538" y="528" width="3" height="3" opacity="0.35"></rect>
  </g>

  <g transform="translate(40,40)">
    <g transform="translate(0,0) scale(0.30067789197463374,0.3006778919746337)" fill="#738BFF">
      <path d="M 16.479 30.228 L 30.904 30.228 L 30.904 73.168 L 16.479 73.168 Z"></path>
      <path d="M 16.479 42.775 L 16.479 27.406 L 59.839 2.614 L 59.839 17.984 Z"></path>
      <path d="M 16.505 27.339 L 16.505 9.434 L 0 0 L 0.001 17.905 Z"></path>
      <path d="M 43.839 61.36 L 43.839 45.99 L 59.864 36.84 L 59.864 52.209 Z"></path>
    </g>
    <text x="32" y="16" font-size="13" font-weight="500" fill="#F0F0F0" letter-spacing="-0.02em">ForgeYields</text>
  </g>
  <text x="1560" y="56" font-size="11" letter-spacing="0.14em" fill="rgba(240,240,240,0.42)" text-anchor="end">STEP 03 · VAULT SETTLEMENT</text>

  <g transform="translate(80,108)">
    <text font-size="11" letter-spacing="0.18em" fill="rgba(240,240,240,0.42)" y="0">USER JOURNEY · STEP 3</text>
    <text font-size="32" font-weight="500" letter-spacing="-0.025em" fill="#F0F0F0" y="38">Ethereum vault settlement.</text>
    <text font-size="14" fill="rgba(240,240,240,0.62)" y="68">Only the net result crosses through Ethereum&#39;s canonical bridge into the main Vault.</text>
  </g>

  <text font-size="11" letter-spacing="0.18em" fill="rgba(240,240,240,0.62)" x="490" y="208" text-anchor="middle">ONLY THE FINAL NET RESULT IS BRIDGED</text>

  <g transform="translate(100,266)">
    <rect width="300" height="120" rx="3" fill="#101218" stroke="rgba(240,240,240,0.22)"></rect>
    <text font-size="11" letter-spacing="0.18em" fill="rgba(240,240,240,0.42)" x="22" y="34">COORDINATION</text>
    <text font-size="22" font-weight="500" fill="#F0F0F0" letter-spacing="-0.015em" x="22" y="68">Controller</text>
    <text font-size="13" fill="rgba(240,240,240,0.62)" x="22" y="94">Starknet · holds the net delta</text>
  </g>

  <g>
    <line x1="408" y1="326" x2="624" y2="326" stroke="rgba(240,240,240,0.55)" stroke-width="1.25" marker-end="url(#arrow)"></line>
    <text font-size="12" font-family="ui-monospace,&#34;SF Mono&#34;,Menlo,monospace" fill="rgba(240,240,240,0.78)" x="516" y="316" text-anchor="middle">net flow</text>
    <text font-size="11" letter-spacing="0.06em" fill="rgba(240,240,240,0.42)" x="516" y="346" text-anchor="middle">batched, one settlement msg</text>
  </g>

  <g transform="translate(632,266)">
    <rect width="316" height="120" rx="3" fill="#101218" stroke="rgba(240,240,240,0.22)"></rect>
    <text font-size="11" letter-spacing="0.18em" fill="rgba(240,240,240,0.42)" x="22" y="34">BRIDGE LAYER</text>
    <text font-size="22" font-weight="500" fill="#F0F0F0" letter-spacing="-0.015em" x="22" y="68">Canonical Bridge</text>
    <text font-size="13" fill="rgba(240,240,240,0.62)" x="22" y="94">Ethereum&#39;s native L1↔L2 path</text>
    <g transform="translate(252,40)">
      <circle cx="0" cy="0" r="10" fill="none" stroke="rgba(240,240,240,0.55)" stroke-width="1"></circle>
      <circle cx="22" cy="0" r="10" fill="none" stroke="rgba(240,240,240,0.55)" stroke-width="1"></circle>
    </g>
  </g>

  <g>
    <path d="M 790 386 L 790 458" fill="none" stroke="#738BFF" stroke-width="1.5" marker-end="url(#arrowBlue)"></path>
    <text font-size="11" font-family="ui-monospace,&#34;SF Mono&#34;,Menlo,monospace" fill="#738BFF" x="800" y="426">deposit / withdraw</text>
  </g>

  <g transform="translate(632,466)">
    <rect width="316" height="104" rx="3" fill="#101218" stroke="#738BFF" stroke-width="1.5"></rect>
    <rect width="316" height="104" rx="3" fill="#738BFF" opacity="0.05"></rect>
    <text font-size="11" letter-spacing="0.18em" fill="#738BFF" x="22" y="30">STRATEGY EXECUTION LAYER</text>
    <text font-size="22" font-weight="500" fill="#F0F0F0" letter-spacing="-0.015em" x="22" y="62">Vault</text>
    <text font-size="13" fill="rgba(240,240,240,0.62)" x="22" y="86">Ethereum · via Veda BoringVault</text>
  </g>

  <g transform="translate(1010,266)">
    <rect width="490" height="304" rx="3" fill="transparent" stroke="rgba(240,240,240,0.18)" stroke-dasharray="4 6"></rect>
    <text font-size="11" letter-spacing="0.18em" fill="rgba(240,240,240,0.42)" x="22" y="34">SECURITY MODEL</text>
    <text font-size="28" font-weight="500" fill="#F0F0F0" letter-spacing="-0.025em" x="22" y="80">All yield activity</text>
    <text font-size="28" font-weight="500" fill="#F0F0F0" letter-spacing="-0.025em" x="22" y="112">Ethereum-secured.</text>
    <line x1="22" y1="138" x2="468" y2="138" stroke="rgba(240,240,240,0.10)"></line>
    <text font-size="13" fill="rgba(240,240,240,0.62)" x="22" y="166">Once the net result lands on L1, every strategy</text>
    <text font-size="13" fill="rgba(240,240,240,0.62)" x="22" y="186">interaction inherits Ethereum&#39;s settlement</text>
    <text font-size="13" fill="rgba(240,240,240,0.62)" x="22" y="206">guarantees — no trust in a sidechain.</text>
    <g transform="translate(22,228)" font-family="ui-monospace,&#34;SF Mono&#34;,Menlo,monospace" font-size="11" fill="rgba(240,240,240,0.62)">
      <text y="0">— Vault accounting in L1 storage</text>
      <text y="20">— Strategy calls in L1 transactions</text>
      <text y="40">— Withdrawals settled in L1 ETH/USDC</text>
    </g>
  </g>

  <g transform="translate(1460,498)">
    <text font-size="11" letter-spacing="0.14em" fill="rgba(240,240,240,0.42)" y="0" text-anchor="end">03 / 06</text>
  </g>
</svg>