<svg xmlns="http://www.w3.org/2000/svg" width="1400" height="560" viewBox="0 0 1400 560" font-family="&#34;Hanken Grotesk&#34;,&#34;Inter&#34;,system-ui,sans-serif">
  <defs>
    <pattern id="grid" x="0" y="0" width="40" height="40" patternUnits="userSpaceOnUse">
      <path d="M 40 0 L 0 0 0 40" fill="none" stroke="rgba(115,139,255,0.05)" stroke-width="1"></path>
    </pattern>
    <radialGradient id="rightWash" cx="78%" cy="50%" r="55%">
      <stop offset="0%" stop-color="rgba(115,139,255,0.06)"></stop>
      <stop offset="100%" stop-color="rgba(115,139,255,0)"></stop>
    </radialGradient>
    <filter id="grain" x="0%" y="0%" width="100%" height="100%">
      <feTurbulence type="fractalNoise" baseFrequency="0.85" numOctaves="2" seed="3"></feTurbulence>
      <feColorMatrix values="0 0 0 0 1   0 0 0 0 1   0 0 0 0 1   0 0 0 0.18 0"></feColorMatrix>
      <feComposite in2="SourceGraphic" operator="in"></feComposite>
    </filter>
    <linearGradient id="lineFill" x1="0" y1="0" x2="0" y2="1">
      <stop offset="0%" stop-color="rgba(115,139,255,0.28)"></stop>
      <stop offset="100%" stop-color="rgba(115,139,255,0)"></stop>
    </linearGradient>
  </defs>

  <rect width="1400" height="560" fill="#0B0C0F"></rect>
  <rect width="1400" height="560" fill="url(#grid)"></rect>
  <rect width="1400" height="560" filter="url(#grain)" opacity="0.35"></rect>
  <rect width="1400" height="560" fill="url(#rightWash)"></rect>

  <g fill="#738BFF">
    <rect x="78" y="78" width="4" height="4" opacity="0.55"></rect>
    <rect x="558" y="48" width="4" height="4" opacity="0.50"></rect>
    <rect x="1278" y="68" width="4" height="4" opacity="0.50"></rect>
    <rect x="1317" y="57" width="5" height="5" opacity="0.55"></rect>
    <rect x="58" y="498" width="3" height="3" opacity="0.40"></rect>
    <rect x="1338" y="488" width="3" height="3" opacity="0.35"></rect>
  </g>

  <g transform="translate(40,40)">
    <g transform="translate(0,0) scale(0.30067789197463374,0.3006778919746337)" fill="#738BFF">
      <path d="M 16.479 30.228 L 30.904 30.228 L 30.904 73.168 L 16.479 73.168 Z"></path>
      <path d="M 16.479 42.775 L 16.479 27.406 L 59.839 2.614 L 59.839 17.984 Z"></path>
      <path d="M 16.505 27.339 L 16.505 9.434 L 0 0 L 0.001 17.905 Z"></path>
      <path d="M 43.839 61.36 L 43.839 45.99 L 59.864 36.84 L 59.864 52.209 Z"></path>
    </g>
    <text x="32" y="16" font-size="13" font-weight="500" fill="#F0F0F0" letter-spacing="-0.02em">ForgeYields</text>
  </g>
  <text x="1360" y="56" font-size="11" letter-spacing="0.14em" fill="rgba(240,240,240,0.42)" text-anchor="end">STEP 05 · EARN</text>

  <g transform="translate(80,108)">
    <text font-size="11" letter-spacing="0.18em" fill="rgba(240,240,240,0.42)" y="0">USER JOURNEY · STEP 5</text>
    <text font-size="32" font-weight="500" letter-spacing="-0.025em" fill="#F0F0F0" y="38">Earn yield passively.</text>
    <text font-size="14" fill="rgba(240,240,240,0.62)" y="68">Token count stays constant. Each fyToken&#39;s share price grows as the vault auto-compounds.</text>
  </g>

  
  <g transform="translate(120,210)">
    
    <line x1="0" y1="0" x2="0" y2="220" stroke="rgba(240,240,240,0.18)"></line>
    
    <line x1="0" y1="220" x2="1080" y2="220" stroke="rgba(240,240,240,0.18)"></line>

    
    <g stroke="rgba(240,240,240,0.06)">
      <line x1="0" y1="44" x2="1080" y2="44"></line>
      <line x1="0" y1="88" x2="1080" y2="88"></line>
      <line x1="0" y1="132" x2="1080" y2="132"></line>
      <line x1="0" y1="176" x2="1080" y2="176"></line>
    </g>

    
    <g font-family="ui-monospace,&#34;SF Mono&#34;,Menlo,monospace" font-size="11" fill="rgba(240,240,240,0.55)" text-anchor="end">
      <text x="-10" y="180">1.000</text>
      <text x="-10" y="136">1.020</text>
      <text x="-10" y="92">1.040</text>
      <text x="-10" y="48">1.060</text>
      <text x="-10" y="4">1.080</text>
    </g>
    <text font-size="10" letter-spacing="0.18em" fill="rgba(240,240,240,0.42)" x="-10" y="-14" text-anchor="end">SHARE PRICE</text>

    
    <g font-family="ui-monospace,&#34;SF Mono&#34;,Menlo,monospace" font-size="11" fill="rgba(240,240,240,0.55)" text-anchor="middle">
      <text x="0" y="240">t0</text>
      <text x="270" y="240">+ 3 mo</text>
      <text x="540" y="240">+ 6 mo</text>
      <text x="810" y="240">+ 9 mo</text>
      <text x="1080" y="240">+ 12 mo</text>
    </g>

    
    
    <path d="M 0 176 C 90 174, 180 168, 270 156 C 360 144, 450 130, 540 110 C 630 92, 720 70, 810 50 C 900 32, 990 22, 1080 18 L 1080 220 L 0 220 Z" fill="url(#lineFill)"></path>
    
    <path d="M 0 176 C 90 174, 180 168, 270 156 C 360 144, 450 130, 540 110 C 630 92, 720 70, 810 50 C 900 32, 990 22, 1080 18" fill="none" stroke="#738BFF" stroke-width="2"></path>

    
    <circle cx="0" cy="176" r="4" fill="#0B0C0F" stroke="rgba(240,240,240,0.78)" stroke-width="1.25"></circle>
    <g transform="translate(8,168)">
      <text font-size="11" letter-spacing="0.06em" fill="rgba(240,240,240,0.62)" y="0">deposit · 1.000</text>
    </g>

    
    <circle cx="1080" cy="18" r="6" fill="#0B0C0F" stroke="#738BFF" stroke-width="1.75"></circle>
    <circle cx="1080" cy="18" r="14" fill="none" stroke="#738BFF" stroke-width="1" opacity="0.45"></circle>
    <g transform="translate(1080,18)">
      <line x1="0" y1="0" x2="-40" y2="-44" stroke="#738BFF" stroke-width="1" opacity="0.6"></line>
      <g transform="translate(-188,-92)">
        <rect width="170" height="48" rx="3" fill="#101218" stroke="#738BFF" stroke-width="1.25"></rect>
        <text font-size="11" letter-spacing="0.14em" fill="#738BFF" x="14" y="18">12-MO SHARE PRICE</text>
        <text font-size="18" font-weight="500" fill="#F0F0F0" font-family="ui-monospace,&#34;SF Mono&#34;,Menlo,monospace" x="14" y="40">1.0720</text>
      </g>
    </g>
  </g>

  
  <g transform="translate(120,510)">
    <rect x="-22" y="-22" width="3" height="60" fill="#738BFF" opacity="0.6"></rect>
    <text font-size="11" letter-spacing="0.14em" fill="rgba(240,240,240,0.42)" y="-2">AUTO-COMPOUND</text>
    <text font-size="13" fill="rgba(240,240,240,0.78)" y="22">Token count stays constant. Each token grows in value.</text>
  </g>

  <g transform="translate(1260,540)">
    <text font-size="11" letter-spacing="0.14em" fill="rgba(240,240,240,0.42)" y="0" text-anchor="end">05 / 06</text>
  </g>
</svg>