<svg width="1117" height="222" viewBox="0 0 1117 222" fill="none" xmlns="http://www.w3.org/2000/svg">
<path d="M286.614 169V51.5326H363.633V64.8467H301.445V102.43H355.375V115.744H301.445V169H286.614ZM405.291 170.348C397.539 170.348 390.573 168.551 384.393 164.955C378.326 161.247 373.551 156.135 370.068 149.619C366.585 143.102 364.843 135.687 364.843 127.372C364.843 119.058 366.529 111.699 369.899 105.295C373.382 98.778 378.158 93.722 384.225 90.1266C390.404 86.4189 397.426 84.565 405.291 84.565C413.156 84.565 420.066 86.4189 426.021 90.1266C432.088 93.722 436.863 98.778 440.346 105.295C443.829 111.699 445.571 119.058 445.571 127.372C445.571 135.687 443.829 143.102 440.346 149.619C436.863 156.023 432.088 161.079 426.021 164.787C419.954 168.494 413.044 170.348 405.291 170.348ZM405.291 157.708C410.572 157.708 415.122 156.472 418.942 154.001C422.875 151.416 425.909 147.877 428.043 143.383C430.178 138.776 431.245 133.44 431.245 127.372C431.245 121.193 430.178 115.856 428.043 111.362C425.909 106.755 422.875 103.216 418.942 100.744C415.122 98.2724 410.572 97.0365 405.291 97.0365C399.898 97.0365 395.236 98.3285 391.303 100.913C387.371 103.385 384.337 106.868 382.202 111.362C380.068 115.856 379 121.193 379 127.372C379 133.44 380.068 138.776 382.202 143.383C384.337 147.877 387.371 151.416 391.303 154.001C395.236 156.472 399.898 157.708 405.291 157.708ZM459.247 169V85.9133H473.572V108.16L469.864 109.002C470.651 104.059 472.505 99.7892 475.426 96.1938C478.46 92.4861 481.943 89.621 485.875 87.5986C489.92 85.5762 493.852 84.565 497.672 84.565C500.257 84.565 502.728 84.8459 505.088 85.4077C507.447 85.9695 509.863 86.9245 512.335 88.2727L505.256 101.081C503.908 100.407 502.279 99.8453 500.369 99.3959C498.571 98.9465 496.83 98.7218 495.144 98.7218C492.448 98.7218 489.751 99.2274 487.055 100.239C484.471 101.25 482.111 102.823 479.976 104.958C477.842 107.092 476.213 109.957 475.089 113.553C474.64 115.126 474.246 117.204 473.909 119.788C473.685 122.26 473.572 125.687 473.572 130.069V169H459.247ZM550.725 204.898C538.815 204.898 529.377 202.707 522.411 198.325C515.445 193.943 511.962 187.876 511.962 180.123C511.962 179.561 511.962 178.831 511.962 177.932C512.074 177.033 512.243 176.191 512.468 175.404L533.197 160.405L538.085 163.775L526.287 178.438C526.175 178.887 526.119 179.281 526.119 179.618C526.119 179.955 526.119 180.292 526.119 180.629C526.119 185.123 528.478 188.437 533.197 190.572C537.916 192.819 543.759 193.943 550.725 193.943C556.904 193.943 562.016 193.044 566.061 191.246C570.106 189.561 572.128 186.752 572.128 182.82C572.128 180.573 571.454 178.719 570.106 177.258C568.87 175.91 567.016 174.842 564.544 174.056C562.185 173.269 559.376 172.595 556.118 172.034C552.859 171.472 549.208 170.91 545.163 170.348C540.107 169.562 535.163 168.438 530.332 166.978C525.613 165.517 521.681 163.382 518.535 160.573C515.501 157.764 513.985 154.057 513.985 149.45C513.985 145.518 515.333 141.922 518.029 138.664C520.838 135.406 524.49 132.709 528.984 130.575L538.085 136.473C534.265 137.372 531.568 138.776 529.995 140.686C528.422 142.484 527.636 144.675 527.636 147.259C527.636 149.394 528.366 151.136 529.827 152.484C531.4 153.832 533.59 154.899 536.399 155.686C539.321 156.36 542.804 156.978 546.848 157.54C552.241 158.326 557.297 159.169 562.016 160.068C566.735 160.967 570.892 162.259 574.488 163.944C578.196 165.517 581.061 167.652 583.083 170.348C585.105 173.157 586.117 176.753 586.117 181.134C586.117 188.775 582.971 194.617 576.679 198.662C570.387 202.819 561.735 204.898 550.725 204.898ZM548.702 143.046C542.298 143.046 536.624 141.81 531.68 139.338C526.737 136.866 522.861 133.44 520.052 129.058C517.355 124.676 516.007 119.676 516.007 114.058C516.007 108.216 517.411 103.104 520.22 98.7218C523.141 94.2276 527.018 90.7446 531.849 88.2727C536.793 85.8009 542.242 84.565 548.197 84.565C554.039 84.565 559.376 85.8009 564.207 88.2727C569.039 90.7446 572.915 94.2276 575.836 98.7218C578.757 103.216 580.218 108.497 580.218 114.564C580.218 120.294 578.87 125.294 576.173 129.563C573.477 133.833 569.769 137.147 565.05 139.507C560.331 141.866 554.882 143.046 548.702 143.046ZM548.365 131.417C553.983 131.417 558.309 129.732 561.342 126.361C564.488 122.878 566.061 118.665 566.061 113.721C566.061 108.441 564.432 104.171 561.174 100.913C557.915 97.6544 553.646 96.0253 548.365 96.0253C542.972 96.0253 538.59 97.7106 535.22 101.081C531.849 104.34 530.164 108.497 530.164 113.553C530.164 118.609 531.793 122.878 535.051 126.361C538.309 129.732 542.747 131.417 548.365 131.417ZM574.825 101.418L564.544 94.5085L582.072 80.0146L589.319 88.9469L574.825 101.418ZM630.59 170.348C624.073 170.348 618.343 169.281 613.399 167.146C608.568 164.899 604.523 161.809 601.265 157.877C598.119 153.944 595.703 149.45 594.018 144.394C592.445 139.226 591.658 133.777 591.658 128.047C591.658 122.316 592.445 116.867 594.018 111.699C595.591 106.418 597.894 101.755 600.928 97.7106C604.074 93.6658 608.006 90.4637 612.725 88.1042C617.444 85.7447 622.949 84.565 629.241 84.565C635.645 84.565 641.151 85.6886 645.757 87.9357C650.476 90.0704 654.296 93.0478 657.218 96.8679C660.251 100.688 662.498 104.958 663.959 109.676C665.42 114.395 666.15 119.283 666.15 124.339C666.15 124.788 666.094 125.856 665.981 127.541C665.981 129.114 665.869 130.518 665.644 131.754H605.815C606.152 139.844 608.512 146.136 612.894 150.63C617.275 155.124 623.23 157.371 630.758 157.371C635.589 157.371 639.803 156.585 643.398 155.012C646.993 153.439 650.364 150.911 653.51 147.428L663.453 156.192C660.42 159.45 657.218 162.146 653.847 164.281C650.476 166.303 646.881 167.82 643.061 168.831C639.353 169.843 635.196 170.348 630.59 170.348ZM651.993 124.507C652.218 123.608 652.33 122.71 652.33 121.811C652.443 120.912 652.499 120.013 652.499 119.114C652.499 116.418 651.993 113.721 650.982 111.025C650.083 108.328 648.679 105.913 646.769 103.778C644.971 101.531 642.612 99.7892 639.69 98.5533C636.881 97.205 633.511 96.5309 629.578 96.5309C624.747 96.5309 620.59 97.6544 617.107 99.9015C613.624 102.149 610.927 105.126 609.017 108.834C607.107 112.541 605.984 116.642 605.647 121.137H656.712L651.993 124.507ZM711.155 169V123.665L669.696 51.5326H686.549L718.065 108.834L750.254 51.5326H767.108L725.986 123.665V169H711.155ZM774.281 169V85.9133H788.438V169H774.281ZM772.933 70.9139V51.5326H789.786V70.9139H772.933ZM840.782 170.348C834.265 170.348 828.535 169.281 823.591 167.146C818.76 164.899 814.715 161.809 811.457 157.877C808.311 153.944 805.895 149.45 804.21 144.394C802.637 139.226 801.851 133.777 801.851 128.047C801.851 122.316 802.637 116.867 804.21 111.699C805.783 106.418 808.086 101.755 811.12 97.7106C814.266 93.6658 818.198 90.4637 822.917 88.1042C827.636 85.7447 833.141 84.565 839.433 84.565C845.838 84.565 851.343 85.6886 855.95 87.9357C860.668 90.0704 864.489 93.0478 867.41 96.8679C870.443 100.688 872.691 104.958 874.151 109.676C875.612 114.395 876.342 119.283 876.342 124.339C876.342 124.788 876.286 125.856 876.174 127.541C876.174 129.114 876.061 130.518 875.836 131.754H816.007C816.344 139.844 818.704 146.136 823.086 150.63C827.468 155.124 833.422 157.371 840.95 157.371C845.781 157.371 849.995 156.585 853.59 155.012C857.185 153.439 860.556 150.911 863.702 147.428L873.646 156.192C870.612 159.45 867.41 162.146 864.039 164.281C860.668 166.303 857.073 167.82 853.253 168.831C849.545 169.843 845.388 170.348 840.782 170.348ZM862.185 124.507C862.41 123.608 862.522 122.71 862.522 121.811C862.635 120.912 862.691 120.013 862.691 119.114C862.691 116.418 862.185 113.721 861.174 111.025C860.275 108.328 858.871 105.913 856.961 103.778C855.163 101.531 852.804 99.7892 849.882 98.5533C847.074 97.205 843.703 96.5309 839.77 96.5309C834.939 96.5309 830.782 97.6544 827.299 99.9015C823.816 102.149 821.119 105.126 819.209 108.834C817.299 112.541 816.176 116.642 815.839 121.137H866.904L862.185 124.507ZM906.685 170.348C901.629 170.348 897.528 168.775 894.382 165.629C891.236 162.483 889.663 157.484 889.663 150.63V51.5326H903.82V147.933C903.82 151.192 904.494 153.551 905.842 155.012C907.19 156.472 908.988 157.203 911.235 157.203C912.246 157.203 913.37 157.09 914.606 156.866C915.842 156.641 917.134 156.304 918.482 155.854V167.989C916.572 168.775 914.549 169.337 912.415 169.674C910.28 170.124 908.37 170.348 906.685 170.348ZM961.736 170.348C954.208 170.348 947.579 168.494 941.849 164.787C936.231 160.967 931.849 155.798 928.703 149.282C925.557 142.765 923.984 135.462 923.984 127.372C923.984 118.609 925.67 111.025 929.04 104.62C932.411 98.2162 936.961 93.2726 942.691 89.7895C948.421 86.3065 954.77 84.565 961.736 84.565C967.016 84.565 971.735 85.6324 975.892 87.7671C980.049 89.7895 983.532 92.5984 986.341 96.1938C989.263 99.6768 991.285 103.609 992.409 107.991L988.364 110.688V51.5326H1002.52V169H988.364V144.226L993.083 145.742C991.622 150.574 989.431 154.843 986.51 158.551C983.589 162.259 980.049 165.18 975.892 167.315C971.735 169.337 967.016 170.348 961.736 170.348ZM964.095 157.203C969.151 157.203 973.589 155.967 977.409 153.495C981.229 150.911 984.207 147.372 986.341 142.877C988.476 138.383 989.543 133.215 989.543 127.372C989.543 121.53 988.476 116.362 986.341 111.867C984.207 107.373 981.229 103.89 977.409 101.418C973.589 98.8341 969.151 97.5421 964.095 97.5421C959.039 97.5421 954.545 98.8341 950.612 101.418C946.792 103.89 943.759 107.373 941.512 111.867C939.377 116.362 938.309 121.53 938.309 127.372C938.309 133.215 939.377 138.383 941.512 142.877C943.759 147.372 946.792 150.911 950.612 153.495C954.545 155.967 959.039 157.203 964.095 157.203ZM1047.5 170.348C1041.89 170.348 1036.83 169.506 1032.34 167.82C1027.84 166.135 1023.97 163.888 1020.71 161.079C1017.56 158.27 1015.03 155.293 1013.12 152.147L1023.07 143.72C1025.2 147.99 1028.35 151.529 1032.5 154.338C1036.77 157.034 1041.83 158.382 1047.67 158.382C1052.95 158.382 1057.17 157.259 1060.31 155.012C1063.46 152.765 1065.03 149.731 1065.03 145.911C1065.03 142.765 1064.08 140.293 1062.17 138.496C1060.26 136.698 1057.73 135.237 1054.58 134.114C1051.44 132.99 1048.01 131.979 1044.3 131.08C1041.16 130.294 1037.95 129.339 1034.7 128.215C1031.55 127.091 1028.68 125.687 1026.1 124.002C1023.52 122.316 1021.44 120.125 1019.86 117.429C1018.29 114.732 1017.51 111.418 1017.51 107.485C1017.51 100.632 1020.15 95.1264 1025.43 90.9693C1030.82 86.6998 1037.84 84.565 1046.49 84.565C1052.79 84.565 1058.52 85.9133 1063.68 88.6098C1068.96 91.194 1073.07 95.1264 1075.99 100.407L1066.89 107.148C1064.64 103.216 1061.66 100.407 1057.95 98.7218C1054.36 96.9241 1050.37 96.0253 1045.99 96.0253C1041.61 96.0253 1037.95 96.9241 1035.03 98.7218C1032.11 100.519 1030.65 102.991 1030.65 106.137C1030.65 108.497 1031.33 110.407 1032.67 111.867C1034.02 113.328 1035.99 114.564 1038.57 115.575C1041.27 116.586 1044.53 117.541 1048.35 118.44C1051.83 119.227 1055.37 120.182 1058.96 121.305C1062.56 122.429 1065.87 123.889 1068.91 125.687C1071.94 127.485 1074.36 129.9 1076.15 132.934C1078.06 135.855 1079.02 139.675 1079.02 144.394C1079.02 149.563 1077.73 154.113 1075.14 158.045C1072.56 161.978 1068.91 165.011 1064.19 167.146C1059.47 169.281 1053.91 170.348 1047.5 170.348Z" fill="#F0F0F0"/>
<g clip-path="url(#clip0_386_524)">
<path d="M51.272 86.9648H96.1571V197.396L51.272 220.794V86.9648Z" fill="#F0F0F0"/>
<path d="M51.272 122.896L51.272 78.8901L186.186 7.90851L186.186 51.9143L51.272 122.896Z" fill="#F0F0F0"/>
<path d="M51.3545 78.6992L51.3545 27.4348L-0.000457824 0.423567L0.00148521 51.688L51.3545 78.6992Z" fill="#F0F0F0"/>
<path d="M136.41 176.101L136.41 132.096L186.272 105.897L186.272 149.902L136.41 176.101Z" fill="#F0F0F0"/>
</g>
<rect x="1087.94" y="32.0098" width="26.4887" height="26.4887" rx="13.2443" stroke="#F0F0F0" stroke-width="3.41789"/>
<path d="M1095.75 51.9055V38.6035H1102.3C1102.83 38.6035 1103.32 38.6522 1103.76 38.7495C1104.21 38.8468 1104.61 38.9928 1104.96 39.1874C1105.32 39.382 1105.61 39.6253 1105.86 39.9173C1106.1 40.2092 1106.29 40.5498 1106.42 40.9391C1106.56 41.3162 1106.62 41.742 1106.62 42.2164C1106.62 43.0436 1106.4 43.7431 1105.97 44.3148C1105.54 44.8744 1104.94 45.2575 1104.18 45.4643V45.5738C1104.7 45.659 1105.12 45.8171 1105.44 46.0482C1105.75 46.2672 1105.98 46.5531 1106.13 46.9058C1106.28 47.2586 1106.35 47.6844 1106.35 48.1831V50.4275C1106.35 50.6586 1106.36 50.9019 1106.37 51.1574C1106.39 51.4007 1106.46 51.65 1106.57 51.9055H1104.12C1104.05 51.7352 1104 51.5223 1103.96 51.2669C1103.93 51.0114 1103.92 50.7255 1103.92 50.4092V48.6028C1103.92 48.1892 1103.86 47.8486 1103.74 47.581C1103.62 47.3012 1103.4 47.0883 1103.08 46.9423C1102.77 46.7842 1102.31 46.7051 1101.71 46.7051H1097.92V44.7892H1101.75C1102.61 44.7892 1103.23 44.5885 1103.59 44.1871C1103.96 43.7735 1104.14 43.2626 1104.14 42.6543C1104.14 42.2772 1104.08 41.967 1103.96 41.7237C1103.85 41.4683 1103.69 41.2615 1103.47 41.1033C1103.26 40.933 1103.01 40.8114 1102.72 40.7384C1102.43 40.6532 1102.1 40.6107 1101.75 40.6107H1098.16V51.9055H1095.75Z" fill="#F0F0F0"/>
<defs>
<clipPath id="clip0_386_524">
<rect width="186.042" height="222" fill="white"/>
</clipPath>
</defs>
</svg>
